<svg width="128" height="128" viewBox="0 0 128 128" fill="none" xmlns="http://www.w3.org/2000/svg">
<rect width="128" height="128" rx="64" fill="#F0B90B"/>
<path d="M37.6568 64L37.699 79.4729L50.8463 87.2094V96.2682L30.0047 84.0445V59.4753L37.6568 64ZM37.6568 48.527V57.5435L30 53.0142V43.9976L37.6568 39.4683L45.3511 43.9976L37.6568 48.527ZM56.3369 43.9976L63.9937 39.4683L71.688 43.9976L63.9937 48.527L56.3369 43.9976Z" fill="white"/>
<path d="M43.1896 76.2658V67.2071L50.8464 71.7365V80.753L43.1896 76.2658ZM56.3369 90.4541L63.9937 94.9834L71.688 90.4541V99.4706L63.9937 104L56.3369 99.4706V90.4541ZM82.6691 43.9976L90.3259 39.4683L98.0202 43.9976V53.0142L90.3259 57.5435V48.527L82.6691 43.9976ZM90.3259 79.4729L90.3681 64L98.0249 59.4706V84.0398L77.1832 96.2635V87.2047L90.3259 79.4729Z" fill="white"/>
<path d="M84.8352 76.2658L77.1785 80.7529V71.7364L84.8352 67.207V76.2658Z" fill="white"/>
<path d="M84.8353 51.7341L84.8775 60.7929L71.6927 68.5294V84.0398L64.0359 88.527L56.3791 84.0398V68.5294L43.1943 60.7929V51.7341L50.8839 47.2048L63.989 54.9788L77.1739 47.2048L84.8682 51.7341H84.8353ZM43.1896 36.2659L63.9937 24L84.8353 36.2659L77.1786 40.7952L63.9937 33.0212L50.8464 40.7952L43.1896 36.2659Z" fill="white"/>
</svg>
