<svg width="128" height="128" viewBox="0 0 24 24" fill="none" xmlns="http://www.w3.org/2000/svg"><path d="M12 24c6.627 0 12-5.373 12-12S18.627 0 12 0 0 5.373 0 12s5.373 12 12 12Z" fill="#383838"/><path d="M9.324 15.1c-.3 0-.554-.21-.605-.501l-1.71-9.856a.6.6 0 0 1 .502-.693.616.616 0 0 1 .709.493L9.929 14.4a.6.6 0 0 1-.605.701Z" fill="#CBFF00"/><path d="M12.187 10.556c-.977 0-1.886.287-2.645.779l.207 1.192a3.75 3.75 0 0 1 2.438-.897c2.051 0 3.72 1.636 3.72 3.648 0 2.011-1.669 3.647-3.72 3.647-2.05 0-3.719-1.636-3.719-3.647 0-.268.031-.53.088-.781l-.33-1.9a4.632 4.632 0 0 0-.853 2.68c0 2.604 2.159 4.723 4.814 4.723 2.656 0 4.815-2.12 4.815-4.722 0-2.603-2.159-4.722-4.815-4.722Z" fill="#CBFF00"/><path d="M11.925 18.032a.65.65 0 0 0 .655-.643.65.65 0 0 0-.655-.643.65.65 0 0 0-.656.643.65.65 0 0 0 .656.643Zm2.048-.748a.65.65 0 0 0 .656-.644.65.65 0 0 0-.655-.643.65.65 0 0 0-.656.643.65.65 0 0 0 .655.643Zm-1.61-1.379a.65.65 0 0 0 .655-.643.65.65 0 0 0-.655-.643.65.65 0 0 0-.656.643.65.65 0 0 0 .655.643Zm-2.037.657a.65.65 0 0 0 .656-.643.65.65 0 0 0-.656-.643.65.65 0 0 0-.656.643.65.65 0 0 0 .656.643Zm4.065-1.316a.65.65 0 0 0 .656-.643.65.65 0 0 0-.656-.643.65.65 0 0 0-.656.643.65.65 0 0 0 .656.643ZM12.8 13.778a.65.65 0 0 0 .656-.643.65.65 0 0 0-.656-.643.65.65 0 0 0-.655.643.65.65 0 0 0 .655.643Zm-2.055.747a.65.65 0 0 0 .656-.643.65.65 0 0 0-.656-.643.65.65 0 0 0-.655.643.65.65 0 0 0 .655.643Z" fill="#1CD7D1"/></svg>