<svg width="128" height="128" viewBox="0 0 128 128" fill="none" xmlns="http://www.w3.org/2000/svg">
<rect width="128" height="128" fill="white"/>
<g clip-path="url(#clip0_0_1)">
<path d="M64.0004 10.8223C34.6308 10.8223 10.8228 34.6303 10.8228 63.9999C10.8228 93.3695 34.6308 117.177 64.0004 117.177C93.37 117.177 117.178 93.3695 117.178 63.9999C117.178 34.6303 93.37 10.8223 64.0004 10.8223ZM74.81 111.411C74.7844 111.417 74.7524 111.424 74.7268 111.43C74.5156 111.481 74.3044 111.526 74.0932 111.571C74.0612 111.577 74.0228 111.584 73.9908 111.59C73.5044 111.693 73.018 111.789 72.5316 111.872C72.2948 111.917 72.0644 111.955 71.8276 111.993C71.7828 112 71.738 112.006 71.6932 112.013C71.4948 112.045 71.2964 112.077 71.1044 112.102C71.0532 112.109 71.002 112.121 70.9572 112.128C70.7268 112.16 70.4964 112.192 70.266 112.217C70.2596 112.224 70.2532 112.224 70.2404 112.224C69.9972 112.256 69.754 112.281 69.5044 112.313C69.466 112.313 69.4276 112.32 69.3892 112.326C69.1908 112.345 68.9924 112.365 68.794 112.384C68.73 112.39 68.6596 112.397 68.5956 112.403C68.4164 112.422 68.2372 112.435 68.058 112.454C67.994 112.461 67.9236 112.461 67.8596 112.467C67.6356 112.486 67.4116 112.505 67.1876 112.518H67.1428C66.906 112.537 66.6628 112.55 66.4196 112.563C66.3556 112.563 66.2916 112.563 66.2276 112.569C66.0484 112.576 65.8756 112.582 65.6964 112.589C65.6196 112.595 65.5364 112.595 65.4532 112.595C65.2868 112.601 65.114 112.608 64.9412 112.608C64.8708 112.614 64.794 112.614 64.7236 112.614C64.4804 112.621 64.2436 112.621 64.0004 112.621C52.6916 112.621 42.2852 108.761 34.0228 102.285C34.0228 102.278 34.0164 102.278 34.0164 102.272C29.8756 98.4191 27.0532 93.3631 25.4788 89.9519C24.154 87.0911 23.1172 84.0767 22.4068 80.9855C21.7092 77.9263 21.3188 74.7711 21.2612 71.6223C21.2548 71.4431 21.2548 71.2639 21.2484 71.0847C21.2548 70.7263 21.2612 70.3743 21.274 70.0223C21.2996 69.1007 21.3572 68.1791 21.4468 67.2639C21.722 64.3135 22.2852 61.3823 23.1236 58.5599C23.9812 55.6799 25.1332 52.8767 26.554 50.2335C28.0004 47.5199 29.7476 44.9407 31.738 42.5727C33.8756 40.0319 36.282 37.7279 38.906 35.7311C41.4596 33.7855 44.2308 32.1151 47.1556 30.7583C50.01 29.4271 53.0308 28.3967 56.122 27.6927C59.1812 26.9887 62.3364 26.6047 65.4852 26.5407C66.0228 26.5279 66.554 26.5279 67.0852 26.5343V34.8031C66.6052 34.7967 66.1316 34.7967 65.6516 34.8031C55.29 35.0079 45.1588 39.4367 38.0676 47.8847C32.41 54.6303 29.6068 62.8415 29.5172 71.0911C29.3956 82.1119 34.1252 93.2031 43.3604 100.953C48.8964 105.6 55.4564 108.294 62.33 109.76C65.1012 110.355 69.306 111.091 74.4644 111.091C75.0532 111.091 75.6484 111.078 76.2564 111.059C75.7764 111.187 75.2964 111.302 74.81 111.411ZM91.3604 103.891C89.3892 105.177 89.1844 105.286 88.0004 105.99C86.8484 106.63 85.6708 107.232 84.4676 107.789C83.0852 108.377 82.0036 108.781 79.4436 109.728C76.4932 109.741 71.5076 109.632 67.7828 109.113C61.9972 108.313 56.4676 107.04 51.9556 104.672C47.6292 102.4 44.0644 99.8847 41.0116 96.5759C37.6132 92.8959 35.1044 88.7231 33.5428 84.1791C31.9876 79.6287 31.3604 74.9183 31.6804 70.1759C31.834 67.8911 32.2116 65.6063 32.8004 63.3983C33.3892 61.2031 34.1892 59.0591 35.1876 57.0175C36.186 54.9759 37.3828 53.0239 38.7524 51.2127C40.1412 49.3759 41.7092 47.6735 43.4244 46.1503C47.002 42.9759 51.1364 40.5887 55.7188 39.0655C59.3028 37.8751 63.0276 37.2671 66.7844 37.2479C70.522 37.2287 74.2404 37.8047 77.8244 38.9439C78.906 39.2895 79.9684 39.6863 81.0052 40.1279L77.53 47.5391C74.1636 46.1375 70.5284 45.3951 66.8228 45.4079C64.0132 45.4207 61.1652 45.8687 58.3684 46.8031C44.0452 51.5647 36.4484 67.1295 41.3956 81.5679C45.466 93.4399 56.506 101.254 69.3572 103.59C72.1412 104.096 75.642 104.531 78.5348 104.582C83.4052 104.665 85.1652 104.71 91.8852 103.507C91.7124 103.635 91.5396 103.763 91.3604 103.891ZM94.33 102.003C91.4628 102.579 89.7604 102.822 87.5076 102.982C79.4052 103.539 71.0084 102.886 65.338 100.998C59.4116 99.0207 53.9012 95.5263 49.818 91.1487C47.5076 88.6783 45.69 85.9711 44.41 83.1103C42.9508 79.8591 42.2148 76.4671 42.2148 73.0239C42.2148 69.6063 42.8868 66.2847 44.2116 63.1487C45.4916 60.1279 47.3156 57.4207 49.6452 55.0911C51.9684 52.7679 54.682 50.9375 57.7028 49.6639C60.8324 48.3391 64.154 47.6671 67.5716 47.6671C70.9956 47.6671 74.3172 48.3391 77.4468 49.6639C80.4676 50.9375 83.1812 52.7679 85.5044 55.0911C87.2708 56.8639 88.7492 58.8543 89.9204 61.0303L82.5028 64.6911C79.578 59.4687 73.9908 55.9295 67.5716 55.9295C58.1316 55.9295 50.4836 63.5839 50.4836 73.0239C50.4836 82.4639 58.9956 90.1695 67.9556 93.1583C73.7796 95.0975 80.5764 95.5775 86.1188 95.5775C89.2484 95.5775 91.9748 95.4239 93.9012 95.2959C95.1236 95.2127 96.6276 95.0783 98.0676 94.9375C99.5012 94.7967 100.871 94.6495 101.824 94.5471C99.6036 97.2927 97.0884 99.7951 94.33 102.003Z" fill="white"/>
<path d="M76.2556 111.059C75.7756 111.187 75.2956 111.302 74.8092 111.411C74.7836 111.418 74.7516 111.424 74.726 111.43C74.5148 111.482 74.3036 111.526 74.0924 111.571C74.0604 111.578 74.022 111.584 73.99 111.59C73.5036 111.693 73.0172 111.789 72.5308 111.872C72.294 111.917 72.0636 111.955 71.8268 111.994C71.782 112 71.7372 112.006 71.6924 112.013C71.4939 112.045 71.2956 112.077 71.1036 112.102C71.0524 112.109 71.0012 112.122 70.9564 112.128C70.726 112.16 70.4956 112.192 70.2652 112.218C70.2588 112.224 70.2523 112.224 70.2396 112.224C69.9964 112.256 69.7532 112.282 69.5036 112.314C69.4652 112.314 69.4268 112.32 69.3884 112.326C69.1899 112.346 68.9916 112.365 68.7932 112.384C68.7292 112.39 68.6588 112.397 68.5948 112.403C68.4156 112.422 68.2364 112.435 68.0572 112.454C67.9932 112.461 67.9228 112.461 67.8588 112.467C67.6348 112.486 67.4108 112.506 67.1868 112.518H67.142C66.9052 112.538 66.662 112.55 66.4188 112.563C66.3548 112.563 66.2908 112.563 66.2268 112.57C66.0476 112.576 65.8748 112.582 65.6956 112.589C65.6188 112.595 65.5356 112.595 65.4524 112.595C65.286 112.602 65.1132 112.608 64.9404 112.608C64.87 112.614 64.7932 112.614 64.7228 112.614C64.4796 112.621 64.2428 112.621 63.9996 112.621C52.6908 112.621 42.2844 108.762 34.022 102.285C34.022 102.278 34.0156 102.278 34.0156 102.272C29.8748 98.4193 27.0524 93.3633 25.478 89.9521C24.1532 87.0913 23.1164 84.0769 22.406 80.9857C21.7084 77.9265 21.318 74.7713 21.2604 71.6225C21.254 71.4433 21.254 71.2641 21.2476 71.0849C21.254 70.7265 21.2604 70.3745 21.2732 70.0225C21.2988 69.1009 21.3564 68.1793 21.446 67.2641C21.7212 64.3137 22.2844 61.3825 23.1228 58.5601C23.9804 55.6801 25.1324 52.8769 26.5532 50.2337C27.9996 47.5201 29.7468 44.9409 31.7372 42.5729C33.8748 40.0321 36.2812 37.7281 38.9052 35.7313C41.4588 33.7857 44.23 32.1153 47.1548 30.7585C50.0092 29.4273 53.03 28.3969 56.1212 27.6929C59.1804 26.9889 62.3356 26.6049 65.4844 26.5409C66.022 26.5281 66.5532 26.5281 67.0844 26.5345V34.8033C66.6044 34.7969 66.1308 34.7969 65.6508 34.8033C55.2892 35.0081 45.158 39.4369 38.0668 47.8849C32.4092 54.6305 29.606 62.8417 29.5164 71.0913C29.3948 82.1121 34.1244 93.2033 43.3596 100.954C48.8956 105.6 55.4556 108.294 62.3292 109.76C65.1004 110.355 69.3052 111.091 74.4636 111.091C75.0524 111.091 75.6476 111.078 76.2556 111.059Z" fill="black"/>
<path d="M91.8841 103.507C91.7113 103.635 91.5385 103.763 91.3593 103.891C89.3881 105.178 89.1833 105.286 87.9993 105.99C86.8473 106.63 85.6697 107.232 84.4665 107.789C83.0841 108.378 82.0025 108.781 79.4425 109.728C76.4921 109.741 71.5065 109.632 67.7817 109.114C61.9961 108.314 56.4665 107.04 51.9545 104.672C47.6281 102.4 44.0633 99.8848 41.0105 96.576C37.6121 92.896 35.1033 88.7232 33.5417 84.1792C31.9865 79.6288 31.3593 74.9184 31.6793 70.176C31.8329 67.8912 32.2105 65.6064 32.7993 63.3984C33.3881 61.2032 34.1881 59.0592 35.1865 57.0176C36.1849 54.976 37.3817 53.024 38.7513 51.2128C40.1401 49.376 41.7081 47.6736 43.4233 46.1504C47.0009 42.976 51.1353 40.5888 55.7177 39.0656C59.3017 37.8752 63.0265 37.2672 66.7833 37.248C70.5209 37.2288 74.2393 37.8048 77.8233 38.944C78.9049 39.2896 79.9673 39.6864 81.0041 40.128L77.5289 47.5392C74.1625 46.1376 70.5273 45.3952 66.8217 45.408C64.0121 45.4208 61.1641 45.8688 58.3673 46.8032C44.0441 51.5648 36.4473 67.1296 41.3945 81.568C45.4649 93.44 56.5049 101.254 69.3561 103.59C72.1401 104.096 75.6409 104.531 78.5337 104.582C83.4041 104.666 85.1641 104.71 91.8841 103.507Z" fill="black"/>
<path d="M101.824 94.5472C99.6032 97.2928 97.088 99.7952 94.3296 102.003C91.4624 102.579 89.76 102.822 87.5072 102.982C79.4048 103.539 71.008 102.886 65.3376 100.998C59.4112 99.0208 53.9008 95.5264 49.8176 91.1488C47.5072 88.6784 45.6896 85.9712 44.4096 83.1104C42.9504 79.8592 42.2144 76.4672 42.2144 73.024C42.2144 69.6064 42.8864 66.2848 44.2112 63.1488C45.4912 60.128 47.3152 57.4208 49.6448 55.0912C51.968 52.768 54.6816 50.9376 57.7024 49.664C60.832 48.3392 64.1536 47.6672 67.5712 47.6672C70.9952 47.6672 74.3168 48.3392 77.4464 49.664C80.4672 50.9376 83.1808 52.768 85.504 55.0912C87.2704 56.864 88.7488 58.8544 89.92 61.0304L82.5023 64.6912C79.5776 59.4688 73.9904 55.9296 67.5712 55.9296C58.1312 55.9296 50.4832 63.584 50.4832 73.024C50.4832 82.464 58.9952 90.1696 67.9552 93.1584C73.7792 95.0976 80.576 95.5776 86.1184 95.5776C89.248 95.5776 91.9744 95.424 93.9008 95.296C95.1232 95.2128 96.6272 95.0784 98.0672 94.9376C99.5008 94.7968 100.87 94.6496 101.824 94.5472Z" fill="black"/>
</g>
<defs>
<clipPath id="clip0_0_1">
<rect width="108" height="108" fill="white" transform="translate(10 10)"/>
</clipPath>
</defs>
</svg>
