<svg width="128" height="128" viewBox="0 0 128 128" fill="none" xmlns="http://www.w3.org/2000/svg">
<rect width="128" height="128" rx="64" fill="#FCCC5D"/>
<g clip-path="url(#clip0_317_612)">
<path d="M55.5789 95.6842C68.3705 95.6842 78.7368 85.4475 78.7368 72.8158C78.7368 60.1841 68.3705 49.9474 55.5789 49.9474C42.7874 49.9474 32.4211 60.1841 32.4211 72.8158C32.4211 85.4475 42.7874 95.6842 55.5789 95.6842ZM55.5789 104C38.1389 104 24 90.0378 24 72.8158C24 55.5938 38.1389 41.6316 55.5789 41.6316C73.0189 41.6316 87.1579 55.5938 87.1579 72.8158C87.1579 90.0378 73.0189 104 55.5789 104Z" fill="white"/>
<path d="M72.4211 79.0526C85.2127 79.0526 95.579 68.8159 95.579 56.1842C95.579 43.5525 85.2127 33.3158 72.4211 33.3158C59.6295 33.3158 49.2632 43.5525 49.2632 56.1842C49.2632 68.8159 59.6295 79.0526 72.4211 79.0526ZM72.4211 87.3684C54.9811 87.3684 40.8422 73.4062 40.8422 56.1842C40.8422 38.9622 54.9811 25 72.4211 25C89.8611 25 104 38.9622 104 56.1842C104 73.4062 89.8611 87.3684 72.4211 87.3684Z" fill="white"/>
<path d="M73.4653 87.3684C75.6548 84.749 77.2211 81.6804 78.0548 78.3791C81.3895 77.5558 84.4969 76.0091 87.158 73.847C87.0401 77.6639 86.2064 81.4226 84.699 84.9485C81.1369 86.4288 77.3306 87.252 73.4653 87.3684ZM49.9453 50.621C46.6106 51.4442 43.5032 52.991 40.8422 55.1531C40.9601 51.3361 41.7937 47.5774 43.3011 44.0598C46.8632 42.5796 50.678 41.7563 54.5348 41.6316C52.3453 44.2511 50.779 47.3196 49.9453 50.621Z" fill="white"/>
</g>
<defs>
<clipPath id="clip0_317_612">
<rect width="80" height="79" fill="white" transform="translate(24 25)"/>
</clipPath>
</defs>
</svg>
