<svg width="128" height="128" viewBox="0 0 128 128" fill="none" xmlns="http://www.w3.org/2000/svg">
<rect width="128" height="128" rx="64" fill="#0A2336"/>
<mask id="mask0_101_1987" style="mask-type:alpha" maskUnits="userSpaceOnUse" x="24" y="74" width="80" height="32">
<path d="M24.4393 74.7942H103.79V105.372H24.4393V74.7942Z" fill="white"/>
</mask>
<g mask="url(#mask0_101_1987)">
<path fill-rule="evenodd" clip-rule="evenodd" d="M64.0378 90.3572C61.2418 90.3572 58.6435 89.7657 56.5227 88.6462L33.6854 76.5941L26.8422 80.745C23.5895 82.7173 23.6463 85.741 26.969 87.4949L58.555 104.165C60.089 104.974 62.0503 105.373 64.0378 105.373C66.3586 105.373 68.7132 104.83 70.4658 103.768L101.387 85.0111C104.64 83.0378 104.583 80.0141 101.261 78.2613L94.6939 74.7942L72.7243 88.1216C70.3467 89.5626 67.2622 90.3572 64.0378 90.3572Z" fill="url(#paint0_linear_101_1987)"/>
</g>
<path fill-rule="evenodd" clip-rule="evenodd" d="M101.464 58.3038L95.9805 55.3672L83.2122 63.2256L81.0201 64.5744L78.829 65.9232L72.8519 69.6023C70.468 71.0705 67.3743 71.8778 64.1425 71.8778C61.339 71.8778 58.7339 71.276 56.6075 70.1382L49.7594 66.4703L47.4928 65.2577L45.2261 64.044L32.6079 57.2854L26.8488 60.8305C23.5874 62.8381 23.6433 65.9131 26.9747 67.6974L33.5599 71.2235L35.8266 72.4372L38.0921 73.6509L58.6452 84.6569C60.1822 85.4798 62.1497 85.884 64.1425 85.884C66.4683 85.884 68.8302 85.3335 70.5863 84.2527L90.3463 72.0911L92.5384 70.7423L94.7294 69.3935L101.591 65.1706C104.852 63.1642 104.795 60.088 101.464 58.3038Z" fill="url(#paint1_linear_101_1987)"/>
<path fill-rule="evenodd" clip-rule="evenodd" d="M101.464 40.3115L69.7932 23.648C68.2562 22.8383 66.2897 22.4412 64.2959 22.4412C61.9701 22.4412 59.6081 22.9832 57.852 24.0452L26.8488 42.7955C23.5874 44.767 23.6433 47.7886 26.9747 49.5418L32.4578 52.4273L34.7245 53.6199L36.9911 54.8125L49.6093 61.4525L51.8759 62.644L54.1426 63.8377L58.6452 66.2075C60.1822 67.0161 62.1497 67.4133 64.1425 67.4133C66.4683 67.4133 68.8302 66.8713 70.5863 65.8093L74.2958 63.5656L76.4879 62.2402L78.6789 60.9149L91.4472 53.1932L93.6394 51.8678L95.8304 50.5424L101.591 47.059C104.852 45.0874 104.795 42.0648 101.464 40.3115Z" fill="url(#paint2_linear_101_1987)"/>
<defs>
<linearGradient id="paint0_linear_101_1987" x1="64.1148" y1="25.1076" x2="64.1148" y2="105.373" gradientUnits="userSpaceOnUse">
<stop stop-color="#B3F9BA"/>
<stop offset="1" stop-color="#F6FB8C"/>
</linearGradient>
<linearGradient id="paint1_linear_101_1987" x1="64.2194" y1="25.1703" x2="64.2194" y2="103.527" gradientUnits="userSpaceOnUse">
<stop stop-color="#B1FFBF"/>
<stop offset="1" stop-color="#FFF16D"/>
</linearGradient>
<linearGradient id="paint2_linear_101_1987" x1="64.2195" y1="22.4412" x2="64.2195" y2="103.752" gradientUnits="userSpaceOnUse">
<stop stop-color="#B3F9BA"/>
<stop offset="1" stop-color="#F6FB8C"/>
</linearGradient>
</defs>
</svg>
