<svg width="128" height="128" viewBox="0 0 128 128" fill="none" xmlns="http://www.w3.org/2000/svg">
<rect width="128" height="128" rx="64" fill="url(#paint0_linear_101_2026)"/>
<path d="M28.591 84.5888C29.4426 84.5888 30.1329 83.8984 30.1329 83.0467C30.1329 82.1951 29.4426 81.5046 28.591 81.5046C27.7394 81.5046 27.0491 82.1951 27.0491 83.0467C27.0491 83.8984 27.7394 84.5888 28.591 84.5888Z" fill="#E1147B"/>
<path d="M94.6182 74.5186H42.9549C41.8066 74.5186 41.0752 75.7462 41.6202 76.7595L41.6459 76.8084C41.9091 77.2999 42.4238 77.6028 42.9805 77.6028H94.5926C95.1493 77.6028 95.664 77.2976 95.9272 76.8084L95.9528 76.7595C96.4955 75.7462 95.7665 74.5186 94.6182 74.5186Z" fill="#E1147B"/>
<path d="M101.485 60.5442H42.9525C42.079 60.5442 41.3919 61.278 41.4385 62.1492V62.1981C41.4828 63.0018 42.1536 63.6261 42.9571 63.6261H101.485C102.288 63.6261 102.957 62.9994 103.001 62.1981V62.1492C103.047 61.278 102.36 60.5442 101.489 60.5442H101.485Z" fill="#E1147B"/>
<path d="M79.4436 95.4767H53.0658C51.4633 95.4767 50.9579 97.6314 52.3903 98.3536C52.4229 98.3699 52.4555 98.3862 52.4858 98.4025C52.6954 98.5073 52.9283 98.5609 53.1636 98.5609H79.3481C79.5834 98.5609 79.814 98.5073 80.0259 98.4025C80.0585 98.3862 80.0911 98.3699 80.1214 98.3536C81.5515 97.6314 81.0484 95.4767 79.446 95.4767H79.4436Z" fill="#E1147B"/>
<path d="M95.5616 88.4907H69.1837C67.5812 88.4907 67.0758 90.6455 68.5082 91.3676C68.5408 91.3839 68.5734 91.4002 68.6037 91.4165C68.8133 91.5213 69.0463 91.5749 69.2815 91.5749H95.4661C95.7013 91.5749 95.9319 91.5213 96.1438 91.4165C96.1765 91.4002 96.2091 91.3839 96.2393 91.3676C97.6695 90.6455 97.1664 88.4907 95.5639 88.4907H95.5616Z" fill="#E1147B"/>
<path d="M59.5943 84.102C59.5803 84.0857 59.564 84.0694 59.55 84.0531C58.6463 83.0864 59.3381 81.5023 60.6634 81.5023H103.476C104.801 81.5023 105.493 83.084 104.589 84.0531C104.575 84.0694 104.559 84.0857 104.545 84.102C104.256 84.4095 103.853 84.5865 103.432 84.5865H60.7053C60.2837 84.5865 59.8808 84.4095 59.592 84.102H59.5943Z" fill="#E1147B"/>
<path d="M34.0945 81.5048H54.5377C56.1402 81.5048 56.6456 83.6595 55.2131 84.3816C55.1805 84.398 55.1479 84.4143 55.1177 84.4306C54.908 84.5354 54.6751 84.589 54.4399 84.589H34.1924C33.9571 84.589 33.7265 84.5354 33.5146 84.4306C33.482 84.4143 33.4494 84.398 33.4191 84.3816C31.989 83.6595 32.4921 81.5048 34.0945 81.5048V81.5048Z" fill="#E1147B"/>
<path d="M37.4487 63.6284C38.3002 63.6284 38.9906 62.938 38.9906 62.0863C38.9906 61.2346 38.3002 60.5442 37.4487 60.5442C36.5971 60.5442 35.9067 61.2346 35.9067 62.0863C35.9067 62.938 36.5971 63.6284 37.4487 63.6284Z" fill="#E1147B"/>
<path d="M75.3185 69.4893L75.3325 69.4404C75.5934 68.4784 74.8643 67.5303 73.8651 67.5303H31.0479C30.0511 67.5303 29.3197 68.4784 29.5806 69.4404L29.5945 69.4893C29.7762 70.1532 30.3748 70.6145 31.0619 70.6145H73.8511C74.5382 70.6145 75.1368 70.1532 75.3185 69.4893Z" fill="#E1147B"/>
<path d="M25.5419 70.6145C26.3935 70.6145 27.0838 69.9241 27.0838 69.0724C27.0838 68.2207 26.3935 67.5303 25.5419 67.5303C24.6903 67.5303 24 68.2207 24 69.0724C24 69.9241 24.6903 70.6145 25.5419 70.6145Z" fill="#E1147B"/>
<path d="M37.4487 77.6004C38.3002 77.6004 38.9906 76.91 38.9906 76.0583C38.9906 75.2067 38.3002 74.5162 37.4487 74.5162C36.5971 74.5162 35.9067 75.2067 35.9067 76.0583C35.9067 76.91 36.5971 77.6004 37.4487 77.6004Z" fill="#E1147B"/>
<path d="M63.6799 91.5749C64.5314 91.5749 65.2218 90.8845 65.2218 90.0328C65.2218 89.1811 64.5314 88.4907 63.6799 88.4907C62.8283 88.4907 62.1379 89.1811 62.1379 90.0328C62.1379 90.8845 62.8283 91.5749 63.6799 91.5749Z" fill="#E1147B"/>
<path d="M47.5619 98.5609C48.4135 98.5609 49.1038 97.8705 49.1038 97.0188C49.1038 96.1671 48.4135 95.4767 47.5619 95.4767C46.7104 95.4767 46.02 96.1671 46.02 97.0188C46.02 97.8705 46.7104 98.5609 47.5619 98.5609Z" fill="#E1147B"/>
<path d="M72.4992 29C58.4143 29 46.9985 40.5123 46.9985 54.7111C46.9985 54.7301 46.9985 54.7466 46.9985 54.7655V54.8057C47.0361 55.475 47.5896 56 48.2557 56H96.7426C97.4088 56 97.9623 55.4774 97.9975 54.8057V54.7655C97.9998 54.7466 97.9975 54.7301 97.9975 54.7111C97.9998 40.5123 86.5841 29 72.4992 29Z" fill="#53CBC8"/>
<defs>
<linearGradient id="paint0_linear_101_2026" x1="64" y1="0" x2="64" y2="128" gradientUnits="userSpaceOnUse">
<stop stop-color="#202751"/>
<stop offset="1" stop-color="#0F1126"/>
</linearGradient>
</defs>
</svg>
