<svg width="128" height="128" viewBox="0 0 128 128" fill="none" xmlns="http://www.w3.org/2000/svg">
<rect width="128" height="128" rx="64" fill="#8247E5"/>
<g clip-path="url(#clip0_101_2008)">
<path d="M84.4167 50.3134C82.9583 49.4776 81.0833 49.4776 79.4167 50.3134L67.75 57.2089L59.8333 61.597L48.375 68.4925C46.9167 69.3283 45.0417 69.3283 43.375 68.4925L34.4167 63.0597C32.9583 62.2238 31.9167 60.5522 31.9167 58.6716V48.2239C31.9167 46.5522 32.75 44.8806 34.4167 43.8358L43.375 38.6119C44.8333 37.7761 46.7083 37.7761 48.375 38.6119L57.3333 44.0447C58.7917 44.8806 59.8333 46.5522 59.8333 48.4328V55.3283L67.75 50.7313V43.6268C67.75 41.9552 66.9167 40.2836 65.25 39.2388L48.5833 29.4179C47.125 28.5821 45.25 28.5821 43.5833 29.4179L26.5 39.4477C24.8333 40.2836 24 41.9552 24 43.6268V63.2686C24 64.9403 24.8333 66.6119 26.5 67.6567L43.375 77.4776C44.8333 78.3134 46.7083 78.3134 48.375 77.4776L59.8333 70.791L67.75 66.194L79.2083 59.5074C80.6667 58.6716 82.5417 58.6716 84.2083 59.5074L93.1667 64.7313C94.625 65.5671 95.6667 67.2388 95.6667 69.1194V79.5671C95.6667 81.2388 94.8333 82.9104 93.1667 83.9552L84.4167 89.1791C82.9583 90.0149 81.0833 90.0149 79.4167 89.1791L70.4583 83.9552C69 83.1194 67.9583 81.4477 67.9583 79.5671V72.8806L60.0417 77.4776V84.3731C60.0417 86.0447 60.875 87.7164 62.5417 88.7612L79.4167 98.5821C80.875 99.4179 82.75 99.4179 84.4167 98.5821L101.292 88.7612C102.75 87.9253 103.792 86.2537 103.792 84.3731V64.5224C103.792 62.8507 102.958 61.1791 101.292 60.1343L84.4167 50.3134Z" fill="white"/>
</g>
<defs>
<clipPath id="clip0_101_2008">
<rect width="80" height="70" fill="white" transform="translate(24 29)"/>
</clipPath>
</defs>
</svg>
