<svg width="128" height="128" viewBox="0 0 128 128" fill="none" xmlns="http://www.w3.org/2000/svg">
<rect width="128" height="128" rx="64" fill="url(#paint0_linear_101_2014)"/>
<g clip-path="url(#clip0_101_2014)">
<path d="M63.4465 25C47.1606 25 33.9583 38.2249 33.9583 54.5386C33.9583 56.4044 34.1327 58.2681 34.4795 60.1017L38.2889 57.4869C44.9873 52.8858 55.8499 52.8858 62.5463 57.4869L66.5441 60.2303L68.7094 61.7205C74.7462 65.8657 84.5262 65.8657 90.557 61.7205L92.3334 60.5014C95.6054 44.509 85.3122 28.8881 69.345 25.6125C67.4083 25.2149 65.4354 25.0141 63.4586 25.0121L63.4465 25V25Z" fill="#F2B705"/>
<path d="M80.0192 72.2864C75.5763 72.2864 71.3279 71.0793 68.1301 68.8822L61.971 64.6547C59.0218 62.6242 55.062 61.5056 50.8297 61.5056C46.5973 61.5056 42.6376 62.6182 39.6884 64.6547L35.7066 67.386C34.9187 67.9263 33.842 67.7254 33.3027 66.9361C32.7634 66.1469 32.9639 65.0684 33.7518 64.5282L37.7336 61.7968C41.2542 59.3768 45.9036 58.0472 50.8297 58.0472C55.7557 58.0472 60.4031 59.3768 63.9258 61.7968L70.0849 66.0244C76.1818 69.7619 83.8566 69.7619 89.9556 66.0244L92.2933 64.4217C93.0813 63.8815 94.1579 64.0823 94.6972 64.8716C95.2365 65.6609 95.036 66.7393 94.2481 67.2796L91.9104 68.8822C88.6945 71.0854 84.4621 72.2864 80.0212 72.2864H80.0192Z" fill="#53CBC8"/>
<path d="M50.7015 84.6918V68.0025C50.6875 67.6511 50.7015 67.2996 50.7456 66.9502C50.8539 66.0002 51.6559 65.2812 52.6122 65.2812C53.5385 65.3074 54.2963 66.0263 54.3725 66.9502C54.4427 67.5286 54.4627 68.115 54.4327 68.6974V101.976C54.3324 103.211 53.5605 104.022 52.522 104C51.4834 103.978 50.7336 103.132 50.7276 101.881V90.7892L50.6995 84.6918H50.7015Z" fill="#53CBC8"/>
<path d="M47.1968 76.291V84.5854C47.1968 86.0033 46.4409 86.9432 45.3703 86.9111C44.2977 86.877 43.4877 85.921 43.4817 84.5694V67.9865C43.4817 66.5345 44.3258 65.5564 45.4245 65.6107C46.5231 65.6669 47.1788 66.5445 47.1848 67.9966C47.2008 70.7621 47.1968 73.5255 47.1968 76.291V76.291Z" fill="#53CBC8"/>
<path d="M57.9551 76.279V70.4488C57.9551 69.0971 58.6709 68.2235 59.7375 68.2235C60.8041 68.2235 61.6261 69.1253 61.6362 70.3985C61.6763 74.367 61.6763 78.3335 61.6362 82.2979C61.6362 83.6496 60.8422 84.4629 59.7475 84.4509C58.6529 84.4388 57.9531 83.6114 57.9431 82.2256V76.2729L57.9551 76.279V76.279Z" fill="#53CBC8"/>
<path d="M36.262 77.492V71.6618C36.262 70.3102 36.9778 69.4365 38.0444 69.4365C39.111 69.4365 39.933 70.3383 39.9431 71.6116C39.9791 75.58 39.9791 79.5465 39.9431 83.511C39.9431 84.8626 39.1431 85.6759 38.0544 85.6639C36.9658 85.6518 36.26 84.8244 36.25 83.4387V77.4859L36.262 77.492V77.492Z" fill="#53CBC8"/>
<path d="M67.0014 72.5293H66.9954C65.9867 72.5293 65.1689 73.3484 65.1689 74.3589V77.5321C65.1689 78.5425 65.9867 79.3617 66.9954 79.3617H67.0014C68.0102 79.3617 68.8279 78.5425 68.8279 77.5321V74.3589C68.8279 73.3484 68.0102 72.5293 67.0014 72.5293Z" fill="#53CBC8"/>
<path d="M74.2431 75.3069H74.2371C73.2284 75.3069 72.4106 76.126 72.4106 77.1365V94.9223C72.4106 95.9328 73.2284 96.7519 74.2371 96.7519H74.2431C75.2519 96.7519 76.0696 95.9328 76.0696 94.9223V77.1365C76.0696 76.126 75.2519 75.3069 74.2431 75.3069Z" fill="#53CBC8"/>
<path d="M81.4348 75.9957H81.4288C80.42 75.9957 79.6023 76.8149 79.6023 77.8253V92.9421C79.6023 93.9525 80.42 94.7717 81.4288 94.7717H81.4348C82.4435 94.7717 83.2613 93.9525 83.2613 92.9421V77.8253C83.2613 76.8149 82.4435 75.9957 81.4348 75.9957Z" fill="#53CBC8"/>
<path d="M88.7265 74.2705H88.7205C87.7118 74.2705 86.894 75.0896 86.894 76.1001V82.6212C86.894 83.6316 87.7118 84.4508 88.7205 84.4508H88.7265C89.7353 84.4508 90.553 83.6316 90.553 82.6212V76.1001C90.553 75.0896 89.7353 74.2705 88.7265 74.2705Z" fill="#53CBC8"/>
</g>
<defs>
<linearGradient id="paint0_linear_101_2014" x1="64" y1="0" x2="64" y2="128" gradientUnits="userSpaceOnUse">
<stop stop-color="#202751"/>
<stop offset="1" stop-color="#0F1126"/>
</linearGradient>
<clipPath id="clip0_101_2014">
<rect width="62" height="79" fill="white" transform="translate(33 25)"/>
</clipPath>
</defs>
</svg>
