<svg width="128" height="128" viewBox="0 0 128 128" fill="none" xmlns="http://www.w3.org/2000/svg">
<rect width="128" height="128" rx="64" fill="#5613FF"/>
<path fill-rule="evenodd" clip-rule="evenodd" d="M91.7621 26.8214C92.0837 25.9806 91.5029 25.0675 90.6088 25.0079L75.5315 24.0029C75.0654 23.9719 74.6173 24.1888 74.351 24.5744L70.3561 30.3582C70.1061 30.7203 69.6943 30.9352 69.2559 30.9326L42.7151 30.7752C41.4129 30.7674 40.1532 31.24 39.1746 32.1033L31.8107 38.5992C30.1722 40.0444 29.5771 42.3483 30.3089 44.4121L33.8165 54.3026C33.8345 54.3537 33.826 54.4104 33.7935 54.4535C31.8228 57.0865 30.6771 60.2497 30.5023 63.5398L30.4429 64.6605C30.0717 71.6514 30.8908 78.6536 32.8657 85.3674C34.4931 90.9 36.3581 97.2406 37.5013 101.127C38.1044 103.177 40.1882 104.387 42.2569 103.888C46.7108 102.813 54.3604 100.966 60.3847 99.5079C65.6823 98.2259 70.7194 96.0402 75.2867 93.0531L78.1445 91.184C80.8922 89.387 83.045 86.8081 84.3285 83.7762C84.3495 83.7265 84.3941 83.6907 84.447 83.6809L94.7236 81.7884C96.868 81.3935 98.5555 79.7236 98.9817 77.575L100.897 67.9177C101.152 66.6342 100.929 65.3015 100.271 64.172L87.8039 42.7621C86.9871 41.3595 86.8495 39.6595 87.43 38.1426L91.7621 26.8214Z" stroke="white" stroke-width="5.5"/>
</svg>
