<?xml version="1.0" encoding="UTF-8"?><svg id="_層_1" xmlns="http://www.w3.org/2000/svg" xmlns:xlink="http://www.w3.org/1999/xlink" viewBox="0 0 128 128"><defs><style>.cls-1{fill:url(#linear-gradient);}</style><linearGradient id="linear-gradient" x1="55.37" y1="26.96" x2="77.55" y2="122.25" gradientTransform="matrix(1, 0, 0, 1, 0, 0)" gradientUnits="userSpaceOnUse"><stop offset=".18" stop-color="#0afdd3"/><stop offset=".23" stop-color="#09f5d3"/><stop offset=".31" stop-color="#08e1d3"/><stop offset=".4" stop-color="#07c1d3"/><stop offset=".51" stop-color="#0594d3"/><stop offset=".62" stop-color="#035ad3"/><stop offset=".75" stop-color="#0014d3"/><stop offset=".78" stop-color="#0000d3"/></linearGradient></defs><path class="cls-1" d="M27.23,60.17c-1.17,1.87,.17,4.29,2.37,4.29h31.98c1.05,0,1.7,1.16,1.14,2.05l-31.39,50.21c-.33,.52-1.03,.69-1.54,.35C12.39,105.83,.88,86.27,.88,64.02,.88,29.84,28.05,2,61.97,.93c.88-.03,1.43,.95,.96,1.7L27.23,60.17ZM99.35,11.72c-.52-.35-1.23-.19-1.56,.34l-30.92,49.47c-.56,.89,.08,2.05,1.13,2.05h31.98c2.2,0,3.54,2.42,2.38,4.29l-36.16,57.85c-.37,.6,.08,1.38,.78,1.35,33.48-1.55,60.15-29.19,60.15-63.05,0-21.76-11.01-40.95-27.77-52.3Z"/></svg>