<svg width="128" height="128" viewBox="0 0 128 128" fill="none" xmlns="http://www.w3.org/2000/svg">
<rect width="128" height="128" rx="64" fill="#013371"/>
<g clip-path="url(#clip0_317_593)">
<path d="M63.8629 80.3889C57.2602 86.9761 50.673 93.5787 44.0511 100.147C40.6996 103.467 36.6608 104.556 32.1702 103.154C27.753 101.776 25.0386 98.633 24.2046 94.073C23.4825 90.1346 24.695 86.6865 27.5098 83.8563C32.9077 78.4313 38.3481 73.0449 43.7615 67.6354C46.6613 64.7434 46.6767 63.0213 43.8272 60.1794C38.3636 54.7274 32.8382 49.3372 27.448 43.8119C20.9959 37.2015 24.0424 26.4867 32.9849 24.3515C37.2284 23.3398 40.993 24.5213 44.1052 27.6412C50.0128 33.5604 55.9281 39.468 61.8435 45.3795C62.4806 46.0166 63.1485 46.6228 63.8011 47.2406C64.9556 47.48 65.8707 48.0901 66.6584 48.9627C69.1874 51.7543 72.261 54.0363 74.373 57.2218C78.4041 63.8669 75.8441 69.7243 71.7744 73.7284C69.9481 75.5199 68.1642 77.3579 66.3379 79.1456C65.6506 79.8213 64.9556 80.5047 63.8629 80.385V80.3889Z" fill="#0AE23A"/>
<path d="M63.8629 80.3888C66.7356 77.5624 69.7744 74.8828 72.4386 71.8749C76.35 67.4577 76.7014 62.5038 73.7823 57.353C74.5082 56.9475 75.0333 57.4186 75.4542 57.8511C77.825 60.2952 80.6475 62.3378 82.2653 65.4537C88.2811 71.5158 94.3045 77.5663 100.313 83.6399C103.614 86.976 104.784 90.9569 103.459 95.4784C101.035 103.753 90.5206 106.506 84.3504 100.486C77.8675 94.1617 71.4695 87.7598 65.0251 81.3927C64.6622 81.0336 64.2529 80.7247 63.8629 80.3888V80.3888Z" fill="#0DB40A"/>
<path d="M82.2654 65.4498C79.439 62.7509 76.6126 60.048 73.7823 57.3491C70.454 53.9821 67.1295 50.6113 63.8011 47.2443C64.7317 47.1401 65.1835 46.3678 65.7588 45.8002C71.2648 40.3753 76.7593 34.9348 82.2538 29.4983C82.9913 30.2783 82.4854 31.0659 82.2345 31.8227C79.9371 38.7304 83.8214 45.2211 90.9916 46.4064C92.679 46.6844 94.2891 46.3061 95.8992 45.8273C96.7217 45.584 97.5595 45.0241 98.4515 45.6767C97.4089 47.3254 95.8606 48.5108 94.5169 49.8777C90.953 53.4956 87.3698 57.0981 83.7249 60.6349C82.3001 62.0172 81.6244 63.5038 82.2615 65.4537L82.2654 65.4498Z" fill="#04795B"/>
<path d="M98.4514 45.6766C94.5941 47.503 90.7252 47.9315 86.8061 45.8349C81.5394 43.0201 79.2729 36.5565 81.6475 31.1045C81.8754 30.5794 82.053 30.0311 82.2537 29.4944C85.447 25.3513 89.5282 23.2045 94.8142 24.3088C99.1812 25.22 102.139 27.9962 103.436 32.2319C104.78 36.6298 103.691 40.5914 100.486 43.9159C99.8685 44.5569 99.1349 45.0936 98.4553 45.6766H98.4514Z" fill="#0AE23A"/>
</g>
<defs>
<clipPath id="clip0_317_593">
<rect width="80" height="79.749" fill="white" transform="translate(24 24)"/>
</clipPath>
</defs>
</svg>
