<svg width="128" height="128" viewBox="0 0 24 24" fill="none" xmlns="http://www.w3.org/2000/svg">
<path d="M12 24C18.6274 24 24 18.6274 24 12C24 5.37258 18.6274 0 12 0C5.37258 0 0 5.37258 0 12C0 18.6274 5.37258 24 12 24Z" fill="#383838"/>
<path d="M9.32382 15.1001C9.02443 15.1001 8.76985 14.8903 8.71893 14.5987L7.00814 4.74302C6.98166 4.58522 7.01832 4.42542 7.11201 4.29358C7.2057 4.16175 7.34826 4.07585 7.5112 4.04989C7.84521 3.99595 8.16293 4.21568 8.21995 4.54327L9.92871 14.3989C9.95519 14.5568 9.91853 14.7166 9.82484 14.8484C9.72912 14.9802 9.58859 15.0661 9.42769 15.0941C9.39307 15.0981 9.35845 15.1001 9.32382 15.1001Z" fill="#CBFF00"/>
<path d="M12.1873 10.5557C11.2097 10.5557 10.3014 10.8433 9.54172 11.3347L9.74946 12.5272C10.4032 11.9699 11.2566 11.6303 12.1873 11.6303C14.2383 11.6303 15.9063 13.2663 15.9063 15.2778C15.9063 17.2892 14.2383 18.9252 12.1873 18.9252C10.1364 18.9252 8.4684 17.2892 8.4684 15.2778C8.4684 15.0101 8.49895 14.7484 8.55598 14.4967L8.22604 12.5971C7.68836 13.3582 7.37268 14.283 7.37268 15.2778C7.37268 17.8805 9.53154 19.9999 12.1873 19.9999C14.8431 19.9999 17.002 17.8805 17.002 15.2778C17.002 12.675 14.8431 10.5557 12.1873 10.5557Z" fill="#CBFF00"/>
<path d="M11.9246 18.0325C12.2868 18.0325 12.5804 17.7445 12.5804 17.3893C12.5804 17.0341 12.2868 16.7461 11.9246 16.7461C11.5624 16.7461 11.2688 17.0341 11.2688 17.3893C11.2688 17.7445 11.5624 18.0325 11.9246 18.0325Z" fill="#1CD7D1"/>
<path d="M13.9735 17.2835C14.3357 17.2835 14.6293 16.9955 14.6293 16.6403C14.6293 16.285 14.3357 15.9971 13.9735 15.9971C13.6113 15.9971 13.3177 16.285 13.3177 16.6403C13.3177 16.9955 13.6113 17.2835 13.9735 17.2835Z" fill="#1CD7D1"/>
<path d="M12.3625 15.9053C12.7247 15.9053 13.0183 15.6173 13.0183 15.2621C13.0183 14.9069 12.7247 14.6189 12.3625 14.6189C12.0003 14.6189 11.7067 14.9069 11.7067 15.2621C11.7067 15.6173 12.0003 15.9053 12.3625 15.9053Z" fill="#1CD7D1"/>
<path d="M10.3258 16.5623C10.688 16.5623 10.9817 16.2743 10.9817 15.9191C10.9817 15.5638 10.688 15.2759 10.3258 15.2759C9.96366 15.2759 9.67004 15.5638 9.67004 15.9191C9.67004 16.2743 9.96366 16.5623 10.3258 16.5623Z" fill="#1CD7D1"/>
<path d="M14.391 15.2461C14.7532 15.2461 15.0468 14.9581 15.0468 14.6029C15.0468 14.2477 14.7532 13.9597 14.391 13.9597C14.0288 13.9597 13.7352 14.2477 13.7352 14.6029C13.7352 14.9581 14.0288 15.2461 14.391 15.2461Z" fill="#1CD7D1"/>
<path d="M12.8004 13.7778C13.1626 13.7778 13.4562 13.4899 13.4562 13.1347C13.4562 12.7794 13.1626 12.4915 12.8004 12.4915C12.4382 12.4915 12.1446 12.7794 12.1446 13.1347C12.1446 13.4899 12.4382 13.7778 12.8004 13.7778Z" fill="#1CD7D1"/>
<path d="M10.7454 14.5249C11.1076 14.5249 11.4012 14.2369 11.4012 13.8817C11.4012 13.5265 11.1076 13.2385 10.7454 13.2385C10.3832 13.2385 10.0896 13.5265 10.0896 13.8817C10.0896 14.2369 10.3832 14.5249 10.7454 14.5249Z" fill="#1CD7D1"/>
</svg>
