<svg width="128" height="128" viewBox="0 0 24 24" fill="none" xmlns="http://www.w3.org/2000/svg">
<g clip-path="url(#clip0_428_3298)">
<rect width="128" height="128" rx="64" fill="#383838"/>
<path d="M12 24C18.6274 24 24 18.6274 24 12C24 5.37258 18.6274 0 12 0C5.37258 0 0 5.37258 0 12C0 18.6274 5.37258 24 12 24Z" fill="#383838"/>
<g clip-path="url(#clip1_428_3298)">
<path d="M8.589 15.4877C8.25545 15.4877 7.97182 15.2518 7.91509 14.9237L6.0091 3.83605C5.9796 3.65852 6.02044 3.47875 6.12482 3.33043C6.22919 3.18212 6.38803 3.08549 6.56955 3.05627C6.94167 2.9956 7.29564 3.24279 7.35918 3.61133L9.26291 14.699C9.2924 14.8765 9.25156 15.0563 9.14718 15.2046C9.04054 15.3529 8.88398 15.4495 8.70472 15.481C8.66615 15.4855 8.62757 15.4877 8.589 15.4877Z" fill="#CBFF00"/>
<path d="M11.7793 10.3755C10.6902 10.3755 9.67817 10.6991 8.83181 11.2519L9.06326 12.5935C9.79162 11.9665 10.7423 11.5845 11.7793 11.5845C14.0642 11.5845 15.9226 13.4249 15.9226 15.6878C15.9226 17.9508 14.0642 19.7912 11.7793 19.7912C9.49438 19.7912 7.63603 17.9508 7.63603 15.6878C7.63603 15.3867 7.67006 15.0923 7.7336 14.8092L7.36601 12.6721C6.76699 13.5283 6.41528 14.5687 6.41528 15.6878C6.41528 18.6159 8.82047 21.0002 11.7793 21.0002C14.7381 21.0002 17.1433 18.6159 17.1433 15.6878C17.1433 12.7598 14.7381 10.3755 11.7793 10.3755Z" fill="#CBFF00"/>
<path d="M11.4866 18.7868C11.8901 18.7868 12.2172 18.4628 12.2172 18.0632C12.2172 17.6636 11.8901 17.3396 11.4866 17.3396C11.083 17.3396 10.7559 17.6636 10.7559 18.0632C10.7559 18.4628 11.083 18.7868 11.4866 18.7868Z" fill="#1CD7D1"/>
<path d="M13.7692 17.944C14.1727 17.944 14.4998 17.6201 14.4998 17.2204C14.4998 16.8208 14.1727 16.4968 13.7692 16.4968C13.3657 16.4968 13.0386 16.8208 13.0386 17.2204C13.0386 17.6201 13.3657 17.944 13.7692 17.944Z" fill="#1CD7D1"/>
<path d="M11.9744 16.3935C12.3779 16.3935 12.705 16.0695 12.705 15.6699C12.705 15.2703 12.3779 14.9463 11.9744 14.9463C11.5709 14.9463 11.2438 15.2703 11.2438 15.6699C11.2438 16.0695 11.5709 16.3935 11.9744 16.3935Z" fill="#1CD7D1"/>
<path d="M9.70536 17.1327C10.1089 17.1327 10.436 16.8088 10.436 16.4091C10.436 16.0095 10.1089 15.6855 9.70536 15.6855C9.30185 15.6855 8.97473 16.0095 8.97473 16.4091C8.97473 16.8088 9.30185 17.1327 9.70536 17.1327Z" fill="#1CD7D1"/>
<path d="M14.2344 15.6518C14.6379 15.6518 14.965 15.3278 14.965 14.9282C14.965 14.5286 14.6379 14.2046 14.2344 14.2046C13.8308 14.2046 13.5037 14.5286 13.5037 14.9282C13.5037 15.3278 13.8308 15.6518 14.2344 15.6518Z" fill="#1CD7D1"/>
<path d="M12.4623 14.0002C12.8658 14.0002 13.1929 13.6762 13.1929 13.2766C13.1929 12.8769 12.8658 12.553 12.4623 12.553C12.0587 12.553 11.7316 12.8769 11.7316 13.2766C11.7316 13.6762 12.0587 14.0002 12.4623 14.0002Z" fill="#1CD7D1"/>
<path d="M10.1728 14.8405C10.5763 14.8405 10.9034 14.5165 10.9034 14.1169C10.9034 13.7173 10.5763 13.3933 10.1728 13.3933C9.76925 13.3933 9.44214 13.7173 9.44214 14.1169C9.44214 14.5165 9.76925 14.8405 10.1728 14.8405Z" fill="#1CD7D1"/>
<path fill-rule="evenodd" clip-rule="evenodd" d="M19.932 10.2832C19.8889 10.3124 19.8162 10.3124 19.671 10.3124H18.6908C18.5456 10.3124 18.473 10.3124 18.4299 10.2854C18.3822 10.2562 18.355 10.2045 18.3504 10.1506C18.3482 10.1012 18.3845 10.0382 18.4548 9.9169L18.4571 9.91465L18.9472 9.08319C19.0198 8.9596 19.0561 8.89892 19.1015 8.87645C19.1514 8.85173 19.2081 8.85173 19.2581 8.87645C19.3034 8.89892 19.3375 8.95735 19.4078 9.0742L19.4146 9.08319L19.9047 9.91465C19.907 9.91915 19.9093 9.92364 19.9115 9.92589C19.9796 10.0427 20.0137 10.1012 20.0114 10.1506C20.0068 10.2023 19.9773 10.254 19.932 10.2832Z" fill="#E84142"/>
<path fill-rule="evenodd" clip-rule="evenodd" d="M18.684 8.08095C18.6658 8.15286 18.6273 8.22253 18.5479 8.35736L17.6607 9.91017L17.6584 9.91466C17.5812 10.0495 17.5404 10.1192 17.4859 10.1708C17.4269 10.227 17.3543 10.2675 17.2749 10.2922C17.2023 10.3124 17.1229 10.3124 16.9618 10.3124H16.2788C16.1359 10.3124 16.0632 10.3124 16.0201 10.2854C15.9725 10.2562 15.9453 10.2068 15.9407 10.1506C15.9385 10.0989 15.9725 10.0383 16.0451 9.91466L17.7355 6.96635C17.8081 6.8405 17.8444 6.77758 17.8898 6.75511C17.9397 6.73039 17.9987 6.73039 18.0464 6.75511C18.0918 6.77758 18.1281 6.8405 18.2007 6.96635L18.5479 7.56635L18.5501 7.56859C18.6273 7.70343 18.6681 7.77084 18.684 7.84275C18.7021 7.9214 18.7021 8.0023 18.684 8.08095Z" fill="#E84142"/>
</g>
</g>
<defs>
<clipPath id="clip0_428_3298">
<rect width="24" height="24" rx="128" fill="white"/>
</clipPath>
</defs>
</svg>